<svg width="79" height="62" viewBox="0 0 79 62" fill="none" xmlns="http://www.w3.org/2000/svg">
<path d="M41.8427 13.991C46.6772 14.1761 51.7525 14.5553 56.62 15.6863C56.9849 15.3032 57.4987 15.0632 58.0663 15.0632C59.0132 15.0632 59.8096 15.7306 60.0135 16.6179C65.077 18.2355 69.7842 20.8574 73.5887 25.1667C74.0229 25.729 74.3664 26.3734 74.619 27.0642C76.52 27.0845 78.0663 28.2008 78.0663 29.5632C78.0662 30.8594 76.6665 31.9327 74.8934 32.0515C74.6956 32.8675 74.3754 33.6438 73.9257 34.3298C72.283 37.0814 69.8678 38.966 67.4344 40.5876C63.764 42.9491 59.9489 44.6938 56.037 46.197C56.0556 46.3176 56.0663 46.4397 56.0663 46.5632C56.0662 48.4687 53.7885 50.0632 51.0663 50.0632C48.3441 50.0632 46.0664 48.4687 46.0663 46.5632C46.0663 44.6577 48.3441 43.0632 51.0663 43.0632C51.8011 43.0632 52.5036 43.1793 53.1376 43.3865C57.5859 42.0221 61.898 40.4192 65.9061 38.1228C68.6792 36.6015 71.4753 34.2401 72.5243 31.5867C71.6436 31.1315 71.0663 30.3945 71.0663 29.5632C71.0663 28.7126 71.6692 27.9577 72.5848 27.5056C72.4201 27.0904 72.1992 26.6741 71.9139 26.2595C68.8977 22.3769 64.655 19.7103 59.8915 17.8718C59.5791 18.5714 58.8785 19.0632 58.0663 19.0632C56.9663 19.0632 56.0663 18.1632 56.0663 17.0632C56.0663 16.9074 56.0859 16.7559 56.12 16.6101C51.465 15.2696 46.5136 14.5653 41.8368 14.1912C40.5855 14.1195 39.3186 14.0865 38.0663 14.0974C39.3162 14.0199 40.5853 13.9858 41.8427 13.991Z" fill="black"/>
<path d="M28.9999 0.0631773C29.5629 18.6525 39.2517 28.7981 58.0663 30.4999C39.2593 32.2838 29.6148 42.4715 29.1328 61.063C28.5698 42.4737 18.881 32.3281 0.0664327 30.6263C18.8734 28.8424 28.5179 18.6547 28.9999 0.0631773Z" fill="black"/>
</svg>
